<?xml version="1.0" encoding="UTF-8"?>
<svg id="Lager_1" data-name="Lager 1" xmlns="http://www.w3.org/2000/svg" width="180.47" height="209.38" viewBox="0 0 180.47 209.38">
  <defs>
    <style>
      .cls-1 {
        fill: #c4e5ea;
      }

      .cls-1, .cls-2 {
        stroke-width: 0px;
      }

      .cls-2 {
        fill: #b7dee3;
      }
    </style>
  </defs>
  <g>
    <g>
      <path class="cls-2" d="M58.69,58.98c.21,0,.39.16.39.34v3.95c0,.18-.18.36-.39.36h-11.99c-.18,0-.36-.21-.41-.39v-17.04c0-.23.13-.36.36-.36h11.73c.23,0,.41.18.41.36v3.89c0,.23-.18.39-.41.39h-6.73v2.04h5.47c.23,0,.36.18.34.34l-.36,3.61c-.03.16-.21.34-.44.34h-5v2.19h7.04Z"/>
      <path class="cls-2" d="M72.46,58.98c.18,0,.34.16.34.36l-.36,3.92c-.03.18-.21.36-.41.36h-9.31c-.21,0-.39-.18-.39-.36v-17.04c0-.21.18-.39.39-.39h4.56c.21,0,.39.18.39.39v12.76h4.8Z"/>
      <path class="cls-2" d="M90.61,45.83c.21,0,.34.18.26.36l-5.9,17.07c-.05.18-.26.36-.47.36h-5.67c-.21,0-.41-.18-.46-.36l-5.9-17.07c-.08-.18.05-.36.26-.36h5.75c.23,0,.44.18.49.36l2.71,10.6,2.71-10.6c.05-.18.26-.36.49-.36h5.75Z"/>
      <path class="cls-2" d="M98.55,45.83c.23,0,.39.18.39.39v17.04c0,.18-.16.36-.39.36h-4.56c-.18,0-.36-.18-.36-.36v-17.04c0-.21.18-.39.36-.39h4.56Z"/>
      <path class="cls-2" d="M117.4,45.83c.23,0,.39.18.39.39v17.04c0,.18-.16.36-.39.36h-4.46c-.18,0-.41-.13-.54-.34l-4.49-8.02v7.99c0,.18-.16.36-.39.36h-4.56c-.21,0-.36-.18-.36-.36v-17.04c0-.21.15-.39.36-.39h4.46c.23,0,.49.13.59.34l4.46,8.02v-7.97c0-.21.18-.39.36-.39h4.56Z"/>
      <path class="cls-2" d="M133.8,58.98c.21,0,.39.16.39.34v3.95c0,.18-.18.36-.39.36h-11.99c-.18,0-.36-.21-.41-.39v-17.04c0-.23.13-.36.36-.36h11.73c.23,0,.41.18.41.36v3.89c0,.23-.18.39-.41.39h-6.73v2.04h5.47c.23,0,.36.18.34.34l-.36,3.61c-.02.16-.21.34-.44.34h-5v2.19h7.04Z"/>
    </g>
    <g>
      <path class="cls-2" d="M38.81,75.64c.21,0,.39.18.39.36v8.2c0,.23-.13.46-.31.62-1.55,1.32-3.92,2.09-6.39,2.09-5.57,0-9.28-3.71-9.28-9.28s3.71-9.28,9.28-9.28c1.91,0,3.92.57,5.41,1.5.21.1.28.31.23.46l-1.29,3.79c-.08.18-.26.26-.49.21-1.06-.57-2.42-.9-3.71-.9-2.37,0-3.97,1.7-3.97,4.23s1.6,4.28,3.97,4.28c.95,0,1.6-.18,1.88-.49v-1.5h-2.37c-.23,0-.39-.1-.41-.28l-.34-3.56c-.02-.26.13-.44.41-.44h6.99ZM34.69,81.02v.1-.1Z"/>
      <path class="cls-2" d="M57.07,68.75c.23,0,.39.18.39.39v17.04c0,.18-.16.36-.39.36h-4.82c-.21,0-.36-.18-.36-.36v-5.78h-3.61v5.78c0,.18-.16.36-.39.36h-4.82c-.18,0-.36-.18-.36-.36v-17.04c0-.21.18-.39.36-.39h4.82c.23,0,.39.18.39.39v6.73h3.61v-6.73c0-.21.15-.39.36-.39h4.82Z"/>
      <path class="cls-2" d="M77.92,86.21c.08.15-.02.34-.23.34h-5.11c-.23,0-.44-.13-.54-.34l-.77-2.71h-4.85l-.77,2.71c-.1.21-.31.34-.54.34h-5.1c-.21,0-.31-.18-.23-.34l5.83-17.12c.08-.15.36-.34.62-.34h5.26c.26,0,.54.18.62.34l5.83,17.12ZM68.85,74.91l-1.39,4.9h2.78l-1.39-4.9Z"/>
      <path class="cls-2" d="M92.11,68.75c.23,0,.39.18.39.36v3.89c0,.23-.15.39-.39.39h-6.55v2.35h5.18c.23,0,.36.18.34.34l-.36,3.61c-.03.15-.21.34-.44.34h-4.72v6.16c0,.18-.18.36-.39.36h-4.56c-.21,0-.36-.21-.36-.39v-17.04c0-.18.15-.36.36-.36h11.5Z"/>
      <path class="cls-2" d="M104.28,86.9c-5.49,0-9.15-3.71-9.15-9.26s3.66-9.31,9.15-9.31,9.15,3.71,9.15,9.31-3.66,9.26-9.15,9.26ZM104.28,73.55c-2.11,0-3.53,1.65-3.53,4.1s1.42,4.1,3.53,4.1,3.53-1.65,3.53-4.1-1.42-4.1-3.53-4.1Z"/>
      <path class="cls-2" d="M130.5,68.75c.26,0,.44.21.44.44v10.75c0,4.56-2.45,6.96-7.12,6.96s-7.06-2.4-7.12-6.96v-10.75c0-.23.21-.44.44-.44h4.43c.26,0,.44.21.44.44v11.22c0,1.19.67,1.88,1.81,1.88s1.81-.7,1.81-1.86v-11.24c0-.23.21-.44.44-.44h4.43Z"/>
      <path class="cls-2" d="M149.16,86.13c.13.23-.05.41-.28.41h-5.52c-.26,0-.49-.18-.59-.41l-2.68-5.62h-.31v5.67c0,.18-.18.36-.41.36h-4.54c-.21,0-.39-.18-.39-.36v-17.04c0-.21.18-.39.39-.39h6.81c3.97,0,6.6,2.32,6.6,5.83,0,2.04-1.24,4.1-3.17,4.92l4.1,6.63ZM141.3,76.13c.88,0,1.47-.54,1.47-1.37s-.59-1.37-1.47-1.37h-1.52v2.73h1.52Z"/>
      <path class="cls-2" d="M156.87,68.75c.23,0,.39.18.39.39v17.04c0,.18-.15.36-.39.36h-4.56c-.18,0-.36-.18-.36-.36v-17.04c0-.21.18-.39.36-.39h4.56Z"/>
    </g>
  </g>
  <g>
    <g>
      <path class="cls-2" d="M62.92,143.63c.13.23-.03.41-.28.41h-5.39c-.23,0-.49-.21-.59-.41l-2.11-4.31-2.11,4.31c-.1.21-.36.41-.59.41h-5.39c-.26,0-.41-.18-.28-.41l4.62-8.48-4.62-8.48c-.13-.23.03-.41.28-.41h5.36c.23,0,.49.21.59.41l2.14,4.56,2.14-4.56c.1-.21.36-.41.59-.41h5.36c.26,0,.41.18.28.41l-4.62,8.48,4.62,8.48Z"/>
      <path class="cls-2" d="M78.05,139.4c.21,0,.39.16.39.34v3.95c0,.18-.18.36-.39.36h-11.99c-.18,0-.36-.21-.41-.39v-17.04c0-.23.13-.36.36-.36h11.73c.23,0,.41.18.41.36v3.89c0,.23-.18.39-.41.39h-6.73v2.04h5.47c.23,0,.36.18.34.34l-.36,3.61c-.02.16-.21.34-.44.34h-5v2.19h7.04Z"/>
      <path class="cls-2" d="M96.49,126.25c.23,0,.39.18.39.39v17.04c0,.18-.15.36-.39.36h-4.46c-.18,0-.41-.13-.54-.34l-4.49-8.02v7.99c0,.18-.16.36-.39.36h-4.56c-.21,0-.36-.18-.36-.36v-17.04c0-.21.16-.39.36-.39h4.46c.23,0,.49.13.59.34l4.46,8.02v-7.97c0-.21.18-.39.36-.39h4.56Z"/>
      <path class="cls-2" d="M109.43,144.41c-5.49,0-9.15-3.71-9.15-9.26s3.66-9.31,9.15-9.31,9.15,3.71,9.15,9.31-3.66,9.26-9.15,9.26ZM109.43,131.05c-2.11,0-3.53,1.65-3.53,4.1s1.42,4.1,3.53,4.1,3.53-1.65,3.53-4.1-1.42-4.1-3.53-4.1Z"/>
      <path class="cls-2" d="M123.43,138.63c.08-.26.26-.34.46-.21,1.19.67,2.6,1.16,3.58,1.24.83,0,1.37-.39,1.37-.98,0-1.52-7.25-1.44-7.25-7.06,0-3.45,2.6-5.75,6.52-5.75,1.83,0,4.15.75,5.78,1.86.21.13.28.34.21.46l-1.62,3.64c-.08.26-.26.34-.46.21-1.26-.72-2.73-1.26-3.64-1.34-.8,0-1.32.36-1.32.93,0,1.52,7.3,1.42,7.3,7.09,0,3.43-2.66,5.72-6.63,5.72-2.17,0-4.44-.67-5.72-1.7-.21-.15-.28-.34-.21-.46l1.62-3.64Z"/>
    </g>
    <g>
      <path class="cls-2" d="M97.76,149.17c.23,0,.39.18.36.36l-.39,3.92c-.03.21-.23.36-.41.36h-3.84v12.79c0,.18-.16.36-.36.36h-4.56c-.21,0-.39-.18-.39-.36v-12.79h-4.28c-.18,0-.36-.16-.36-.36v-3.89c0-.21.18-.39.36-.39h13.87Z"/>
      <g>
        <path class="cls-2" d="M17.53,162.32c.21,0,.39.16.39.34v3.95c0,.18-.18.36-.39.36H5.54c-.18,0-.36-.21-.41-.39v-17.04c0-.23.13-.36.36-.36h11.73c.23,0,.41.18.41.36v3.89c0,.23-.18.39-.41.39h-6.73v2.04h5.47c.23,0,.36.18.34.34l-.36,3.61c-.03.16-.21.34-.44.34h-5v2.19h7.04Z"/>
        <path class="cls-2" d="M31.29,162.32c.18,0,.34.16.34.36l-.36,3.92c-.03.18-.21.36-.41.36h-9.31c-.21,0-.39-.18-.39-.36v-17.04c0-.21.18-.39.39-.39h4.56c.21,0,.39.18.39.39v12.76h4.8Z"/>
        <path class="cls-2" d="M44.65,162.32c.18,0,.34.16.34.36l-.36,3.92c-.03.18-.21.36-.41.36h-9.31c-.21,0-.39-.18-.39-.36v-17.04c0-.21.18-.39.39-.39h4.56c.21,0,.39.18.39.39v12.76h4.8Z"/>
        <path class="cls-2" d="M52.8,149.17c.23,0,.39.18.39.39v17.04c0,.18-.16.36-.39.36h-4.56c-.18,0-.36-.18-.36-.36v-17.04c0-.21.18-.39.36-.39h4.56Z"/>
        <path class="cls-2" d="M58.26,161.55c.08-.26.26-.34.46-.21,1.19.67,2.6,1.16,3.58,1.24.83,0,1.37-.39,1.37-.98,0-1.52-7.24-1.44-7.24-7.06,0-3.46,2.6-5.75,6.52-5.75,1.83,0,4.15.75,5.78,1.86.21.13.28.34.21.46l-1.62,3.64c-.08.26-.26.34-.47.21-1.26-.72-2.73-1.26-3.64-1.34-.8,0-1.32.36-1.32.93,0,1.52,7.3,1.42,7.3,7.09,0,3.43-2.66,5.72-6.63,5.72-2.17,0-4.43-.67-5.72-1.7-.2-.15-.28-.34-.2-.46l1.62-3.64Z"/>
        <path class="cls-2" d="M80.8,161.24c0,.23-.18.39-.39.39h-7.61c-.18,0-.36-.16-.36-.39v-2.84c0-.21.18-.36.36-.36h7.61c.21,0,.39.15.39.36v2.84Z"/>
        <path class="cls-2" d="M108.98,167.32c-5.49,0-9.15-3.71-9.15-9.26s3.66-9.31,9.15-9.31,9.15,3.71,9.15,9.31-3.66,9.26-9.15,9.26ZM108.98,153.97c-2.11,0-3.53,1.65-3.53,4.1s1.42,4.1,3.53,4.1,3.53-1.65,3.53-4.1-1.42-4.1-3.53-4.1Z"/>
        <path class="cls-2" d="M141.57,149.17c.21,0,.36.18.36.39v17.04c0,.18-.16.36-.36.36h-4.77c-.21,0-.39-.18-.39-.36v-7.58l-2.61,7.55c-.08.21-.41.39-.64.39h-2.84c-.23,0-.57-.18-.65-.39l-2.6-7.55v7.58c0,.18-.18.36-.39.36h-4.77c-.21,0-.36-.18-.36-.36v-17.04c0-.21.15-.39.36-.39h5.39c.34,0,.72.23.88.52l3.56,9.85,3.56-9.85c.15-.28.54-.52.88-.52h5.39Z"/>
        <path class="cls-2" d="M153.72,149.17c3.38,0,5.62,2.01,5.62,5.03,0,1.86-.9,3.22-2.3,3.64,1.62.41,2.68,1.96,2.68,4.1,0,3.02-2.24,5.03-5.6,5.03h-8.17c-.21,0-.36-.18-.36-.36v-17.04c0-.18.16-.39.36-.39h7.76ZM152.53,156.16c.77,0,1.29-.46,1.29-1.19s-.52-1.19-1.29-1.19h-1.62v2.37h1.62ZM152.99,162.35c.75,0,1.26-.49,1.26-1.24s-.51-1.24-1.26-1.24h-2.09v2.48h2.09Z"/>
        <path class="cls-2" d="M164.42,161.55c.08-.26.26-.34.46-.21,1.19.67,2.6,1.16,3.58,1.24.83,0,1.37-.39,1.37-.98,0-1.52-7.25-1.44-7.25-7.06,0-3.46,2.6-5.75,6.52-5.75,1.83,0,4.15.75,5.78,1.86.21.13.28.34.21.46l-1.62,3.64c-.08.26-.26.34-.46.21-1.26-.72-2.73-1.26-3.64-1.34-.8,0-1.32.36-1.32.93,0,1.52,7.3,1.42,7.3,7.09,0,3.43-2.66,5.72-6.63,5.72-2.17,0-4.44-.67-5.72-1.7-.21-.15-.28-.34-.21-.46l1.62-3.64Z"/>
      </g>
    </g>
  </g>
  <g>
    <path class="cls-1" d="M51.58,30.27c.07.03.09.1.06.18-.16.62-.54,1.29-1.04,1.77-1.39,1.35-3.27,1.29-4.69-.17s-1.43-3.34-.04-4.69c.5-.49,1.17-.85,1.8-.99.08-.03.15,0,.18.06l.47,1.37c.03.09,0,.15-.08.18-.39.1-.68.29-.97.57-.61.59-.58,1.43.07,2.1.65.67,1.49.72,2.1.13.29-.28.49-.57.6-.95.03-.08.09-.11.18-.07l1.36.5Z"/>
    <path class="cls-1" d="M55.37,25.82c.06-.05.15-.04.19,0l.89,1.13c.04.05.03.14-.03.19l-3.44,2.7c-.05.04-.15.02-.21-.02l-3.84-4.89c-.05-.07-.04-.13.02-.19l3.37-2.64c.07-.05.16-.04.2.01l.88,1.12c.05.07.04.15-.03.2l-1.93,1.52.46.58,1.57-1.23c.07-.05.14-.03.17.02l.71,1.12c.03.05.02.14-.05.2l-1.44,1.13.49.63,2.02-1.59Z"/>
    <path class="cls-1" d="M59.68,22.99c.06-.04.13-.02.17.05l.66,1.27c.03.06,0,.15-.06.19l-2.86,1.84c-.06.04-.15.02-.19-.03l-3.37-5.23c-.04-.06-.02-.15.04-.19l1.4-.9c.06-.04.15-.02.2.04l2.52,3.92,1.47-.95Z"/>
    <path class="cls-1" d="M64.83,20.24c.07-.04.15-.02.18.04l.66,1.28c.03.06,0,.15-.07.18l-3.89,2.01c-.06.03-.15,0-.2-.06l-2.86-5.53c-.04-.08-.02-.14.06-.18l3.81-1.97c.08-.04.16-.01.19.05l.65,1.26c.04.08,0,.16-.07.19l-2.18,1.13.34.66,1.77-.92c.08-.04.15,0,.16.05l.49,1.23c.02.05-.01.14-.09.18l-1.62.84.37.71,2.28-1.18Z"/>
    <path class="cls-1" d="M67.15,14.11c1.15-.44,2.18-.06,2.58.97.24.63.12,1.22-.3,1.54.61-.07,1.17.31,1.45,1.04.4,1.03-.1,2.01-1.24,2.45l-2.78,1.08c-.07.03-.15-.01-.17-.08l-2.24-5.8c-.02-.06,0-.15.07-.18l2.64-1.02ZM67.66,16.64c.26-.1.38-.33.28-.57-.09-.25-.33-.34-.59-.23l-.55.21.31.81.55-.21ZM68.63,18.69c.25-.1.37-.33.27-.59-.1-.25-.34-.35-.59-.25l-.71.27.33.84.71-.27Z"/>
    <path class="cls-1" d="M77.79,17.51c.07.07.02.15-.06.17l-1.95.51c-.09.02-.19-.02-.25-.09l-1.47-1.74-.11.03.53,2c.02.06-.03.14-.11.17l-1.6.42c-.07.02-.15-.03-.17-.09l-1.58-6.02c-.02-.07.03-.15.1-.17l2.4-.63c1.4-.37,2.54.21,2.87,1.44.19.72-.06,1.56-.66,2.03l2.06,1.96ZM74.08,14.71c.31-.08.47-.33.39-.62-.08-.29-.34-.43-.65-.35l-.54.14.25.96.54-.14Z"/>
    <path class="cls-1" d="M84.8,16.51c.04.05,0,.12-.07.13l-1.85.26c-.08.01-.16-.02-.21-.09l-.42-.94-1.75.24-.14,1.02c-.03.08-.1.14-.18.15l-1.85.26c-.07.01-.12-.05-.1-.11l1.24-6.49c.02-.06.11-.14.21-.15l1.9-.27c.09-.01.21.04.24.09l2.97,5.9ZM80.95,12.89l-.26,1.84,1.01-.14-.75-1.7Z"/>
    <path class="cls-1" d="M89.37,10c.09,0,.14.06.14.13l-.08,1.43c0,.08-.08.14-.14.14l-1.4.06.19,4.66c0,.07-.05.13-.13.14l-1.66.07c-.08,0-.14-.06-.15-.13l-.19-4.66-1.56.06c-.07,0-.13-.05-.14-.13l-.06-1.42c0-.08.06-.14.13-.15l5.06-.2Z"/>
    <path class="cls-1" d="M95.32,15.09c.08,0,.14.07.13.13l-.09,1.44c0,.07-.07.13-.15.12l-4.37-.27c-.07,0-.13-.08-.14-.15l.38-6.22c0-.08.06-.13.14-.12l4.28.26c.08,0,.15.08.14.14l-.09,1.42c0,.08-.07.14-.16.13l-2.45-.15-.05.74,1.99.12c.08,0,.13.07.11.13l-.21,1.31c-.01.06-.08.12-.17.11l-1.82-.11-.05.8,2.57.16Z"/>
    <path class="cls-1" d="M108.4,12.8c.09.02.12.11.07.18l-3.1,5.62c-.05.08-.15.12-.24.1l-1.59-.38c-.08-.02-.18-.11-.18-.2l-.07-3.42-1.6,3.02c-.04.08-.16.12-.24.1l-1.59-.38c-.08-.02-.16-.11-.17-.19l-.23-6.41c0-.09.06-.15.15-.13l2.05.49c.09.02.17.12.17.21l-.13,2.86,1.36-2.57c.05-.09.17-.12.28-.1l1.32.31c.11.03.2.12.21.21l.05,2.9,1.17-2.61c.04-.08.16-.13.25-.11l2.05.49Z"/>
    <path class="cls-1" d="M111.65,14.08c.08.03.11.11.08.18l-2.12,5.85c-.02.06-.1.1-.18.08l-1.57-.57c-.06-.02-.1-.11-.08-.17l2.12-5.85c.03-.07.11-.11.17-.09l1.57.57Z"/>
    <path class="cls-1" d="M117.96,16.82c.08.04.1.12.06.18l-.73,1.24c-.04.06-.13.08-.19.06l-1.27-.59-1.95,4.24c-.03.06-.11.1-.17.07l-1.51-.7c-.07-.03-.1-.12-.07-.18l1.95-4.24-1.42-.65c-.06-.03-.1-.11-.07-.17l.59-1.29c.03-.07.12-.1.18-.07l4.6,2.11Z"/>
    <path class="cls-1" d="M124.03,20.35c.07.04.09.13.05.19l-3.21,5.33c-.03.06-.12.08-.19.04l-1.51-.91c-.06-.04-.08-.12-.05-.18l1.09-1.81-1.13-.68-1.09,1.81c-.03.06-.12.08-.19.04l-1.51-.91c-.06-.03-.08-.12-.05-.18l3.21-5.33c.04-.06.13-.09.19-.05l1.51.91c.07.04.09.13.05.19l-1.27,2.1,1.13.68,1.27-2.1c.04-.06.12-.09.19-.05l1.51.91Z"/>
    <path class="cls-1" d="M131.48,26.11c.07.06.07.16.02.23l-2.51,3.02c-1.07,1.28-2.31,1.38-3.62.29-1.29-1.08-1.42-2.32-.37-3.61l2.51-3.02c.05-.06.16-.07.23-.02l1.24,1.04c.07.06.07.16.02.22l-2.62,3.15c-.28.33-.25.68.07.95s.67.23.94-.1l2.62-3.15c.05-.07.16-.08.23-.02l1.24,1.04Z"/>
    <path class="cls-1" d="M130.11,31.04c.09-.05.15-.02.17.07.13.48.36.98.59,1.25.21.22.45.26.61.11.4-.39-1.47-2.26,0-3.7.9-.88,2.17-.78,3.17.24.47.48.86,1.28.99,1.99.02.09-.02.16-.07.17l-1.37.5c-.09.05-.15.02-.17-.07-.13-.51-.37-1.04-.57-1.29-.2-.21-.43-.25-.58-.11-.4.39,1.49,2.27,0,3.72-.9.87-2.18.76-3.19-.28-.55-.57-.95-1.33-1.01-1.93-.01-.09.02-.16.07-.17l1.37-.5Z"/>
  </g>
  <g>
    <path class="cls-1" d="M44.67,186.02c0-.49.95-.2,1.06-.91l.59-4.19c.02-.1.02-.16.02-.21,0-.25-.11-.34-.3-.34-.24,0-.57.11-.78.11-.16,0-.26-.11-.26-.27,0-.15.09-.26.28-.32.38-.12.98-.26,1.64-.48.67-.22.97-.41,1.18-.41.14,0,.22.11.22.23,0,.37-.51.34-.6,1l-.68,4.82c0,.06-.02.16-.02.24,0,.47.79.33.79.7,0,.16-.11.28-.32.28-.31,0-.71-.03-1.29-.03s-.94.03-1.26.03c-.18,0-.27-.1-.27-.25Z"/>
    <path class="cls-1" d="M49.35,184.45c0-.83.59-1.52,1.61-1.95-.52-.35-.86-.83-.86-1.5,0-1.15,1.01-2.02,2.47-2.02,1.31,0,2.11.71,2.11,1.6,0,.71-.5,1.34-1.29,1.68.78.44,1.34,1,1.34,1.89,0,1.38-1.29,2.24-2.84,2.24s-2.54-.85-2.54-1.94ZM51.9,185.7c.89,0,1.57-.56,1.57-1.3,0-.82-.87-1.12-1.9-1.57-.67.33-1.08.94-1.08,1.59,0,.75.55,1.28,1.41,1.28ZM52.76,181.95s0,0,.02.01c.51-.29.83-.78.83-1.31,0-.57-.37-1-1.04-1s-1.22.46-1.22,1.08.65.9,1.41,1.22Z"/>
    <path class="cls-1" d="M56.54,185.39c0-.37.1-.57.24-1.6l.26-1.87h-.57c-.16,0-.28-.08-.28-.24,0-.19.18-.29.37-.38.63-.27.96-.69,1.35-1.5.13-.25.22-.4.42-.4.14,0,.25.11.22.32l-.23,1.57h1.52c.13,0,.18.06.18.19,0,.08-.02.2-.05.27-.04.11-.11.17-.26.17h-1.48l-.35,2.48c-.05.36-.06.52-.06.65,0,.37.26.52.51.52.28,0,.51-.16.73-.34.11-.08.19-.16.3-.16.14,0,.23.11.23.25,0,.19-.14.34-.33.51-.4.35-.9.53-1.41.53-.92,0-1.31-.56-1.31-.97Z"/>
    <path class="cls-1" d="M64.48,185.36c0-.27.08-1.47.08-2.03,0-.88-.2-1.21-.66-1.21-.51,0-1.09.41-1.28,1.43-.12.78-.22,1.55-.3,2.27-.04.37-.22.47-.86.47-.25,0-.4-.08-.4-.29,0-.24.42-2.8.49-3.32l.32-2.23c0-.1.03-.21.03-.3,0-.42-.64-.26-.64-.61,0-.21.16-.29.88-.58.57-.23.72-.28.85-.28.16,0,.26.12.26.27,0,.09,0,.16-.03.29l-.35,2.54-.06.4c.4-.57,1.02-1,1.69-1,.63,0,1.27.36,1.27,1.55,0,.47-.1,1.76-.1,2.15,0,.42.1.5.28.5.2,0,.3-.13.44-.13.12,0,.21.09.21.24,0,.37-.61.82-1.21.82-.55,0-.91-.34-.91-.95Z"/>
    <path class="cls-1" d="M70.47,184.14c0-1.66,1.32-3,3.11-3,1.43,0,2.39.88,2.39,2.25,0,1.66-1.33,3.01-3.11,3.01-1.43,0-2.39-.89-2.39-2.26ZM73.18,185.75c.86,0,1.48-.85,1.48-2.01,0-1.09-.56-1.96-1.4-1.96s-1.48.87-1.48,2.02c0,1.08.54,1.95,1.4,1.95Z"/>
    <path class="cls-1" d="M77.44,187.75c0-.24.33-2.06.77-5.83h-.88c-.12,0-.18-.07-.18-.22,0-.24.12-.41.32-.41h.78c-.02-.35-.1-.57-.1-.87,0-1.07.78-1.85,2-1.85.85,0,1.49.46,1.49,1.08,0,.4-.27.65-.62.65-.33,0-.56-.24-.65-.64-.07-.31-.21-.47-.46-.47-.4,0-.64.42-.64.98,0,.39.14.69.15,1.12h.98c.13,0,.19.06.19.23,0,.22-.12.4-.32.4h-.91c-.4,3.19-.53,4.39-.67,5.65-.03.36-.22.47-.86.47-.25,0-.39-.08-.39-.29Z"/>
    <path class="cls-1" d="M83.51,186.04c0-.43.72-.27.89-.83l1.37-4.46c.08-.23.15-.51.15-.69,0-.42-.48-.35-.48-.66,0-.18.15-.28.38-.28.21,0,.6.03.99.03.41,0,.7-.03.95-.03.18,0,.28.09.28.22,0,.4-.61.26-.61.77,0,.17.07.39.19.75l.98,3.09,1.69-3.09c.27-.47.36-.7.36-.87,0-.37-.45-.29-.45-.59,0-.17.14-.28.34-.28.26,0,.57.03,1,.03.39,0,.73-.03.96-.03.18,0,.27.09.27.22,0,.45-.66.15-.66.93,0,.09.01.25.02.48l.12,4.47c.02.51.63.39.63.75,0,.19-.16.29-.37.29-.18,0-.46-.03-.93-.03-.42,0-.76.03-1.05.03-.21,0-.32-.07-.32-.23,0-.45.74-.19.74-.84v-.3l-.06-3.64-2.31,4.17c-.12.2-.28.27-.44.27-.17,0-.3-.08-.36-.27l-1.36-4.18-1.13,3.77c-.06.19-.09.33-.09.4,0,.31.55.25.55.56,0,.18-.15.29-.39.29s-.52-.03-.8-.03-.56.03-.77.03c-.17,0-.28-.07-.28-.22Z"/>
    <path class="cls-1" d="M94.12,184.2c0-1.72,1.3-3.05,2.78-3.05.79,0,1.17.38,1.45.38s.64-.33.87-.33c.16,0,.25.13.22.32l-.44,3.16c-.02.14-.03.3-.03.35,0,.2.09.31.24.31.16,0,.25-.11.37-.11s.21.1.21.26c0,.43-.59.83-1.18.83-.48,0-.85-.28-.85-.81v-.09c-.4.54-1.03.96-1.77.96-1.05,0-1.87-.82-1.87-2.18ZM96.56,185.52c.55,0,1.19-.47,1.34-1.46.05-.38.1-.7.1-1.02,0-.8-.42-1.26-1-1.26-.85,0-1.59,1-1.59,2.17,0,.96.52,1.57,1.15,1.57Z"/>
    <path class="cls-1" d="M100.17,187.35c0-.37.31-.67.64-.67.56,0,.58.58,1.16.58.34,0,.79-.22,1.24-.58-.32-1.4-.92-3.08-1.36-3.91-.13-.22-.24-.31-.37-.32-.13-.02-.29.03-.42.03-.15,0-.25-.11-.25-.23,0-.17.2-.31.71-.66.42-.29.59-.37.76-.37.15,0,.24.1.32.25.54,1.09,1.15,2.79,1.54,4.29.67-.81,1.2-1.81,1.2-2.65,0-.36-.14-.5-.52-.6-.33-.09-.58-.28-.58-.6,0-.39.31-.71.81-.71.63,0,1.06.53,1.06,1.51,0,2.63-2.84,5.43-4.84,5.43-.68,0-1.1-.32-1.1-.79Z"/>
    <path class="cls-1" d="M113.7,186.24h-2.4c-.28,0-.58.03-.82.03s-.34-.17-.34-.31c0-.18.12-.31.3-.5.48-.52,1.76-1.82,2.39-2.49.68-.72,1.18-1.35,1.18-2.05,0-.55-.37-.96-1-.96s-1.04.42-1.42.91c-.16.2-.25.29-.39.29s-.27-.11-.27-.29c0-.15.09-.32.16-.44.5-.82,1.29-1.45,2.4-1.45s2,.81,2,1.8c0,1.06-.82,1.83-1.5,2.43-1.01.9-1.71,1.39-2.3,1.96h1.82c.64,0,.85-.12,1.57-.84.17-.17.28-.27.42-.27.13,0,.23.09.23.24s-.12.37-.35.79l-.54.96c-.16.29-.3.41-.49.41-.28,0-.28-.22-.65-.22Z"/>
    <path class="cls-1" d="M117.28,183.39c0-2.54,1.29-4.41,3.09-4.41,1.41,0,2.37,1.12,2.37,3.01,0,2.54-1.28,4.41-3.09,4.41-1.41,0-2.37-1.12-2.37-3.01ZM119.68,185.69c.98,0,1.76-1.77,1.76-3.95,0-1.34-.43-2.05-1.1-2.05-.98,0-1.76,1.77-1.76,3.95,0,1.34.43,2.05,1.1,2.05Z"/>
    <path class="cls-1" d="M127.21,186.24h-2.4c-.28,0-.58.03-.82.03s-.34-.17-.34-.31c0-.18.12-.31.3-.5.48-.52,1.76-1.82,2.39-2.49.68-.72,1.18-1.35,1.18-2.05,0-.55-.37-.96-1-.96s-1.04.42-1.42.91c-.16.2-.25.29-.39.29s-.27-.11-.27-.29c0-.15.09-.32.16-.44.5-.82,1.29-1.45,2.4-1.45s2,.81,2,1.8c0,1.06-.82,1.83-1.5,2.43-1.01.9-1.71,1.39-2.3,1.96h1.82c.64,0,.85-.12,1.57-.84.17-.17.28-.27.42-.27.13,0,.23.09.23.24s-.12.37-.35.79l-.54.96c-.16.29-.3.41-.49.41-.28,0-.28-.22-.65-.22Z"/>
    <path class="cls-1" d="M132.5,186.02c0-.43.76-.2.85-.86l.09-.6h-2.65c-.28,0-.44-.17-.44-.42,0-.27.17-.43.59-.96l2.8-3.55c.31-.41.48-.51.88-.51h.35c.4,0,.52.13.49.41l-.57,4.01h.61c.22,0,.31.06.26.39l-.04.25c-.04.33-.14.38-.37.38h-.61l-.07.49c0,.06-.02.16-.02.24,0,.5.54.38.54.7,0,.17-.13.27-.32.27-.24,0-.53-.03-1-.03s-.87.03-1.1.03c-.19,0-.27-.1-.27-.24ZM133.62,183.54l.45-3.27-2.55,3.27h2.1Z"/>
    <path class="cls-1" d="M56.37,197.49c0-.1.02-.27.04-.41l.29-2.1c.02-.1.04-.21.04-.3,0-.43-.62-.24-.62-.6,0-.2.18-.27.88-.58.56-.24.71-.29.83-.29.16,0,.26.13.26.29,0,.08,0,.15-.03.28l-.41,2.89c-.02.13-.03.29-.03.36,0,.2.07.31.25.31.16,0,.26-.11.37-.11.12,0,.21.1.21.26,0,.43-.58.83-1.19.83-.5,0-.89-.28-.89-.83ZM57.87,190.83c.4,0,.67.23.67.57,0,.45-.48.92-1.05.92-.41,0-.66-.24-.66-.58,0-.45.47-.91,1.04-.91Z"/>
    <path class="cls-1" d="M63.45,197.36c0-.27.08-1.47.08-2.03,0-.88-.2-1.21-.66-1.21-.52,0-1.12.43-1.3,1.52-.11.74-.2,1.48-.28,2.18-.04.37-.22.47-.86.47-.25,0-.4-.08-.4-.29,0-.24.48-2.79.48-3.32,0-.42-.63-.24-.63-.6,0-.2.18-.27.89-.58.56-.24.71-.29.84-.29.15,0,.25.13.25.3,0,.07,0,.14-.02.27l-.06.4c.39-.57,1.02-1,1.69-1,.63,0,1.27.36,1.27,1.55,0,.47-.1,1.76-.1,2.15,0,.42.1.5.28.5.2,0,.3-.13.44-.13.12,0,.21.09.21.24,0,.37-.61.82-1.21.82-.55,0-.91-.34-.91-.95Z"/>
    <path class="cls-1" d="M69.29,198.04c0-.43.65-.18.75-.88l.69-4.87c0-.07,0-.14,0-.2,0-.5-.55-.37-.55-.69,0-.17.13-.28.35-.28s.48.03.96.03,1.01-.05,1.55-.05c2.2,0,3.66,1.31,3.66,3.26,0,2.27-1.75,3.91-4.18,3.91-.64,0-1.25-.04-1.91-.04-.52,0-.83.03-1.07.03-.18,0-.26-.1-.26-.22ZM72.09,197.6h.34c1.71,0,2.85-1.34,2.85-3.36,0-1.48-.85-2.48-2.33-2.48h-.15c-.57,0-.72.13-.76.47l-.68,4.78c0,.07-.02.16-.02.25,0,.24.16.34.75.34Z"/>
    <path class="cls-1" d="M77.89,196.14c0-1.63,1.37-2.98,2.91-2.98,1.19,0,1.81.85,1.81,1.59,0,.41-.28.68-.61.78l-2.76.82c.21.7.73,1.2,1.47,1.2.49,0,.97-.21,1.38-.57.16-.13.22-.16.3-.16.14,0,.22.13.22.24,0,.1-.05.22-.15.35-.39.49-1.32.97-2.31.97-1.3,0-2.26-.85-2.26-2.24ZM79.15,195.76l1.85-.57c.25-.07.4-.25.4-.49,0-.41-.27-.87-.84-.87-.74,0-1.41.77-1.41,1.83v.1Z"/>
    <path class="cls-1" d="M83.87,196.2c0-1.72,1.3-3.05,2.78-3.05.79,0,1.17.38,1.45.38s.64-.33.87-.33c.16,0,.25.13.22.32l-.44,3.16c-.02.14-.03.3-.03.35,0,.2.09.31.24.31.16,0,.25-.11.37-.11s.21.1.21.26c0,.43-.59.83-1.18.83-.48,0-.85-.28-.85-.81v-.09c-.4.54-1.03.96-1.77.96-1.05,0-1.87-.82-1.87-2.18ZM86.31,197.52c.55,0,1.19-.47,1.34-1.46.05-.38.1-.7.1-1.02,0-.8-.42-1.26-1-1.26-.85,0-1.59,1-1.59,2.17,0,.96.52,1.57,1.15,1.57Z"/>
    <path class="cls-1" d="M90.92,197.48c0-.09.02-.28.04-.41l.65-4.62c.02-.1.03-.21.03-.3,0-.42-.64-.26-.64-.61,0-.21.16-.29.89-.58.56-.23.71-.28.85-.28.15,0,.26.12.26.27,0,.09-.02.16-.04.29l-.76,5.43c-.02.13-.03.28-.03.36,0,.2.07.31.25.31.16,0,.26-.11.37-.11.12,0,.21.1.21.26,0,.43-.58.83-1.19.83-.5,0-.89-.28-.89-.84Z"/>
    <path class="cls-1" d="M94.12,199.41c0-.14.13-.22.24-.3.26-.2.45-.39.45-.59,0-.13-.09-.21-.25-.3-.22-.14-.34-.27-.34-.52,0-.45.46-.76.94-.76.45,0,.74.29.74.78,0,.96-1.11,1.9-1.55,1.9-.13,0-.23-.08-.23-.21Z"/>
    <path class="cls-1" d="M100.21,198.04c0-.43.65-.18.75-.88l.69-4.87c.01-.07.02-.14.02-.2,0-.5-.53-.37-.53-.69,0-.17.14-.28.35-.28.24,0,.47.03.94.03s.79-.03,1.03-.03c.18,0,.27.1.27.22,0,.45-.67.18-.77.89l-.32,2.26,2.7-2.24c.2-.17.32-.26.32-.41,0-.21-.38-.18-.38-.44,0-.17.14-.27.39-.27.28,0,.64.03.92.03.31,0,.83-.03,1.04-.03.13,0,.22.07.22.2,0,.43-.67.31-1.16.71l-2.01,1.65,1.79,3.57c.24.48.71.41.71.73,0,.18-.14.27-.31.27-.19,0-.62-.03-1.05-.03s-.79.03-1.07.03c-.22,0-.32-.09-.32-.22,0-.4.63-.24.63-.68,0-.07-.02-.18-.08-.3l-1.29-2.55-1.19.98-.22,1.56c-.01.06-.02.16-.02.24,0,.5.53.36.53.68,0,.17-.12.29-.32.29-.24,0-.55-.03-1.01-.03s-.75.03-.98.03c-.19,0-.27-.1-.27-.22Z"/>
    <path class="cls-1" d="M108.11,196.14c0-1.63,1.37-2.98,2.91-2.98,1.19,0,1.81.85,1.81,1.59,0,.41-.28.68-.61.78l-2.76.82c.21.7.73,1.2,1.47,1.2.49,0,.97-.21,1.38-.57.16-.13.22-.16.3-.16.14,0,.22.13.22.24,0,.1-.05.22-.15.35-.39.49-1.32.97-2.31.97-1.3,0-2.26-.85-2.26-2.24ZM109.37,195.76l1.85-.57c.25-.07.4-.25.4-.49,0-.41-.27-.87-.84-.87-.74,0-1.41.77-1.41,1.83v.1Z"/>
    <path class="cls-1" d="M117.85,197.36c0-.27.08-1.47.08-2.03,0-.88-.2-1.21-.66-1.21-.52,0-1.12.43-1.3,1.52-.11.74-.2,1.48-.28,2.18-.04.37-.22.47-.86.47-.25,0-.4-.08-.4-.29,0-.24.48-2.79.48-3.32,0-.42-.63-.24-.63-.6,0-.2.18-.27.89-.58.56-.24.71-.29.84-.29.15,0,.25.13.25.3,0,.07,0,.14-.02.27l-.06.4c.39-.57,1.02-1,1.69-1,.63,0,1.27.36,1.27,1.55,0,.47-.1,1.76-.1,2.15,0,.42.1.5.28.5.2,0,.3-.13.44-.13.12,0,.21.09.21.24,0,.37-.61.82-1.21.82-.55,0-.91-.34-.91-.95Z"/>
    <path class="cls-1" d="M121.44,197.39c0-.37.1-.57.24-1.6l.26-1.87h-.57c-.16,0-.28-.08-.28-.24,0-.19.18-.29.37-.38.63-.27.96-.69,1.35-1.5.13-.25.22-.4.42-.4.14,0,.25.11.22.32l-.23,1.57h1.52c.13,0,.18.06.18.19,0,.08-.02.2-.05.27-.04.11-.11.17-.26.17h-1.48l-.35,2.48c-.05.36-.06.52-.06.65,0,.37.26.52.51.52.28,0,.51-.16.73-.34.11-.08.19-.16.3-.16.14,0,.23.11.23.25,0,.19-.14.34-.33.51-.4.35-.9.53-1.41.53-.92,0-1.31-.56-1.31-.97Z"/>
  </g>
  <g>
    <path class="cls-1" d="M86.49,104.65c.03.06,0,.12-.09.12h-1.88c-.09,0-.16-.05-.2-.12l-.28-1h-1.78l-.28,1c-.04.08-.11.12-.2.12h-1.88c-.08,0-.11-.07-.09-.12l2.14-6.29c.03-.06.13-.12.23-.12h1.93c.09,0,.2.07.23.12l2.14,6.29ZM83.16,100.5l-.51,1.8h1.02l-.51-1.8Z"/>
    <path class="cls-1" d="M93.39,103.1c.09,0,.14.07.14.14v6.26c0,.07-.06.13-.14.13h-1.64c-.07,0-.15-.05-.2-.12l-1.65-2.95v2.94c0,.07-.06.13-.14.13h-1.68c-.08,0-.13-.07-.13-.13v-6.26c0-.08.06-.14.13-.14h1.64c.09,0,.18.05.22.12l1.64,2.95v-2.93c0-.08.07-.14.13-.14h1.68Z"/>
    <path class="cls-1" d="M97.32,107.97c2.01,0,3.34,1.3,3.34,3.27s-1.34,3.27-3.34,3.27h-2.2c-.07,0-.13-.07-.13-.14v-6.25c0-.08.07-.14.13-.14h2.2ZM97.43,112.81c.73,0,1.22-.63,1.22-1.56s-.49-1.56-1.22-1.56h-.49v3.13h.49Z"/>
  </g>
</svg>