<?xml version="1.0" encoding="UTF-8"?>
<svg id="Lager_1" data-name="Lager 1" xmlns="http://www.w3.org/2000/svg" width="200" height="200" viewBox="0 0 200 200">
  <defs>
    <style>
      .cls-1 {
        fill: #2b4a45;
        stroke-width: 0px;
      }
    </style>
  </defs>
  <path class="cls-1" d="M56.72,81c.32-.19.72-.05.91.27l15.36,26.44c.16.28.09.7-.24.88l-7.4,4.3c-.32.19-.76.07-.93-.21l-6.83-11.76,2.77,14.07c.07.39-.29.97-.65,1.18l-4.4,2.56c-.36.21-1.04.23-1.35-.02l-10.85-9.37,6.83,11.76c.16.28.05.72-.28.91l-7.4,4.3c-.32.19-.72.05-.89-.24l-15.36-26.44c-.19-.32-.11-.74.21-.93l8.36-4.86c.52-.3,1.33-.29,1.83.01l14.4,12.08-3.35-18.49c-.02-.58.38-1.29.89-1.59l8.36-4.86Z"/>
  <path class="cls-1" d="M98.8,96.93c.37-.05.73.18.77.5l.95,7.02c.04.32-.24.68-.6.73l-21.33,2.89c-.32.04-.69-.28-.83-.59l-4.11-30.32c-.06-.41.14-.67.56-.73l20.87-2.83c.41-.06.78.22.82.54l.94,6.93c.06.41-.23.73-.64.79l-11.97,1.62.49,3.62,9.72-1.32c.41-.06.68.23.68.52l.23,6.51c0,.28-.29.65-.7.7l-8.9,1.21.53,3.9,12.52-1.7Z"/>
  <path class="cls-1" d="M137.44,79.13c.41.09.61.46.54.82l-6.28,29.95c-.07.32-.4.58-.81.49l-7.84-1.64c-.32-.07-.68-.38-.83-.79l-4.93-15.74-2.94,14.04c-.07.32-.4.58-.81.49l-8.02-1.68c-.36-.08-.57-.45-.5-.77l6.28-29.95c.07-.36.41-.62.78-.55l7.84,1.64c.41.09.81.41.92.81l4.88,15.73,2.94-14c.07-.36.46-.61.78-.55l8.02,1.68Z"/>
  <path class="cls-1" d="M173.71,98.71c.39.25.47.73.24,1.09l-10.35,16.29c-4.4,6.91-10.41,8.19-17.48,3.69-6.99-4.44-8.39-10.43-4.08-17.4l10.35-16.29c.22-.35.73-.46,1.08-.24l6.72,4.27c.39.25.47.73.24,1.09l-10.8,16.99c-1.14,1.8-.8,3.5.92,4.59,1.72,1.09,3.41.68,4.52-1.07l10.82-17.03c.22-.35.73-.47,1.09-.24l6.72,4.27Z"/>
</svg>