<?xml version="1.0" encoding="UTF-8"?>
<svg id="Lager_1" data-name="Lager 1" xmlns="http://www.w3.org/2000/svg" width="366.92" height="103.41" viewBox="0 0 366.92 103.41">
  <defs>
    <style>
      .cls-1 {
        fill: #204b44;
        stroke-width: 0px;
      }
    </style>
  </defs>
  <g>
    <path class="cls-1" d="M9.56,44.28c5.99,0,9.58,3.25,9.58,8.15s-3.59,8.15-9.58,8.15h-1.4v6.84c0,.24-.24.48-.55.48H1.48c-.24,0-.48-.24-.48-.48v-22.62c0-.27.24-.51.48-.51h8.08ZM9.86,54.44c1.2,0,2.02-.82,2.02-2.02s-.82-2.02-2.02-2.02h-1.78v4.04h1.78Z"/>
    <path class="cls-1" d="M37.46,61.73c.24,0,.45.21.45.48l-.48,5.2c-.03.24-.27.48-.55.48h-12.35c-.27,0-.51-.24-.51-.48v-22.62c0-.27.24-.51.51-.51h6.06c.27,0,.51.24.51.51v16.94h6.36Z"/>
    <path class="cls-1" d="M59.17,61.73c.27,0,.51.21.51.45v5.24c0,.24-.24.48-.51.48h-15.91c-.24,0-.48-.27-.55-.51v-22.62c0-.31.17-.48.48-.48h15.57c.31,0,.55.24.55.48v5.17c0,.31-.24.52-.55.52h-8.93v2.7h7.25c.31,0,.48.24.45.44l-.48,4.79c-.03.21-.27.44-.58.44h-6.64v2.91h9.34Z"/>
    <path class="cls-1" d="M87.34,67.45c.1.21-.03.45-.31.45h-6.78c-.31,0-.58-.17-.72-.45l-1.03-3.59h-6.43l-1.03,3.59c-.14.28-.41.45-.72.45h-6.78c-.27,0-.41-.24-.31-.45l7.73-22.72c.1-.21.48-.45.82-.45h6.98c.34,0,.72.24.82.45l7.73,22.72ZM75.3,52.46l-1.85,6.5h3.69l-1.85-6.5Z"/>
    <path class="cls-1" d="M92.8,60.7c.1-.34.34-.45.62-.27,1.57.89,3.46,1.54,4.76,1.64,1.1,0,1.81-.51,1.81-1.3,0-2.02-9.62-1.92-9.62-9.38,0-4.58,3.46-7.63,8.66-7.63,2.43,0,5.51.99,7.67,2.46.27.17.38.45.27.62l-2.16,4.83c-.1.34-.34.44-.62.27-1.68-.96-3.63-1.68-4.83-1.78-1.06,0-1.74.48-1.74,1.23,0,2.02,9.68,1.88,9.68,9.41,0,4.55-3.52,7.6-8.8,7.6-2.87,0-5.89-.89-7.6-2.26-.27-.21-.38-.45-.27-.62l2.16-4.83Z"/>
    <path class="cls-1" d="M129.05,61.73c.27,0,.51.21.51.45v5.24c0,.24-.24.48-.51.48h-15.91c-.24,0-.48-.27-.55-.51v-22.62c0-.31.17-.48.48-.48h15.57c.31,0,.55.24.55.48v5.17c0,.31-.24.52-.55.52h-8.93v2.7h7.25c.31,0,.48.24.45.44l-.48,4.79c-.03.21-.27.44-.58.44h-6.64v2.91h9.34Z"/>
    <path class="cls-1" d="M144.67,60.7c.1-.34.34-.45.62-.27,1.57.89,3.46,1.54,4.76,1.64,1.1,0,1.81-.51,1.81-1.3,0-2.02-9.62-1.92-9.62-9.38,0-4.58,3.46-7.63,8.66-7.63,2.43,0,5.51.99,7.67,2.46.27.17.38.45.27.62l-2.16,4.83c-.1.34-.34.44-.62.27-1.68-.96-3.63-1.68-4.83-1.78-1.06,0-1.74.48-1.74,1.23,0,2.02,9.68,1.88,9.68,9.41,0,4.55-3.52,7.6-8.8,7.6-2.87,0-5.89-.89-7.6-2.26-.27-.21-.38-.45-.27-.62l2.16-4.83Z"/>
    <path class="cls-1" d="M182.64,44.28c.34,0,.58.27.58.58v14.27c0,6.06-3.25,9.24-9.45,9.24s-9.38-3.18-9.45-9.24v-14.27c0-.31.27-.58.58-.58h5.89c.34,0,.58.27.58.58v14.89c0,1.57.89,2.5,2.4,2.5s2.4-.93,2.4-2.47v-14.92c0-.31.27-.58.58-.58h5.89Z"/>
    <path class="cls-1" d="M199.69,44.28c4.48,0,7.46,2.67,7.46,6.67,0,2.46-1.2,4.28-3.05,4.82,2.16.55,3.56,2.6,3.56,5.44,0,4-2.98,6.67-7.43,6.67h-10.85c-.27,0-.48-.24-.48-.48v-22.62c0-.24.21-.51.48-.51h10.3ZM198.12,53.55c1.03,0,1.71-.62,1.71-1.57s-.69-1.57-1.71-1.57h-2.16v3.15h2.16ZM198.73,61.77c.99,0,1.68-.65,1.68-1.64s-.68-1.64-1.68-1.64h-2.77v3.29h2.77Z"/>
    <path class="cls-1" d="M239.61,44.28c.27,0,.48.24.48.51v22.62c0,.24-.21.48-.48.48h-6.33c-.27,0-.51-.24-.51-.48v-10.06l-3.46,10.03c-.1.27-.55.51-.86.51h-3.76c-.31,0-.75-.24-.86-.51l-3.46-10.03v10.06c0,.24-.24.48-.51.48h-6.33c-.27,0-.48-.24-.48-.48v-22.62c0-.27.21-.51.48-.51h7.15c.44,0,.96.31,1.16.69l4.72,13.07,4.72-13.07c.2-.38.72-.69,1.16-.69h7.15Z"/>
    <path class="cls-1" d="M252.53,44.28c.31,0,.51.24.51.51v22.62c0,.24-.2.48-.51.48h-6.06c-.24,0-.48-.24-.48-.48v-22.62c0-.27.24-.51.48-.51h6.06Z"/>
    <path class="cls-1" d="M276.59,44.28c.31,0,.51.24.48.48l-.51,5.2c-.03.27-.31.48-.55.48h-5.1v16.97c0,.24-.2.48-.48.48h-6.06c-.27,0-.51-.24-.51-.48v-16.97h-5.68c-.24,0-.48-.21-.48-.48v-5.17c0-.27.24-.51.48-.51h18.41Z"/>
    <path class="cls-1" d="M301.42,68.37c-7.29,0-12.15-4.93-12.15-12.29s4.86-12.36,12.15-12.36,12.15,4.93,12.15,12.36-4.86,12.29-12.15,12.29ZM301.42,50.64c-2.81,0-4.69,2.19-4.69,5.44s1.88,5.44,4.69,5.44,4.69-2.19,4.69-5.44-1.88-5.44-4.69-5.44Z"/>
    <path class="cls-1" d="M338.81,44.28c.31,0,.51.24.51.51v22.62c0,.24-.21.48-.51.48h-5.92c-.24,0-.55-.17-.72-.45l-5.95-10.64v10.61c0,.24-.2.48-.51.48h-6.06c-.27,0-.48-.24-.48-.48v-22.62c0-.27.21-.51.48-.51h5.92c.31,0,.65.17.79.45l5.92,10.64v-10.57c0-.27.24-.51.48-.51h6.06Z"/>
    <path class="cls-1" d="M361.61,61.73c.27,0,.51.21.51.45v5.24c0,.24-.24.48-.51.48h-15.91c-.24,0-.48-.27-.55-.51v-22.62c0-.31.17-.48.48-.48h15.57c.31,0,.55.24.55.48v5.17c0,.31-.24.52-.55.52h-8.93v2.7h7.25c.31,0,.48.24.45.44l-.48,4.79c-.03.21-.27.44-.58.44h-6.64v2.91h9.34Z"/>
    <path class="cls-1" d="M20.54,101.09c.17.31-.07.55-.38.55h-7.32c-.34,0-.65-.24-.79-.55l-3.56-7.46h-.41v7.53c0,.24-.24.48-.55.48H1.51c-.27,0-.51-.24-.51-.48v-22.62c0-.27.24-.51.51-.51h9.03c5.27,0,8.76,3.08,8.76,7.74,0,2.7-1.64,5.44-4.21,6.54l5.44,8.79ZM10.1,87.81c1.16,0,1.95-.72,1.95-1.81s-.79-1.81-1.95-1.81h-2.02v3.62h2.02Z"/>
    <path class="cls-1" d="M27.16,94.45c.1-.35.34-.45.62-.27,1.57.89,3.46,1.54,4.76,1.64,1.1,0,1.81-.51,1.81-1.3,0-2.02-9.62-1.92-9.62-9.38,0-4.58,3.46-7.63,8.66-7.63,2.43,0,5.51.99,7.67,2.46.27.17.38.45.27.62l-2.16,4.83c-.1.34-.34.44-.62.27-1.68-.96-3.63-1.68-4.82-1.78-1.06,0-1.75.48-1.75,1.23,0,2.02,9.69,1.88,9.69,9.41,0,4.55-3.52,7.6-8.8,7.6-2.87,0-5.89-.89-7.6-2.26-.27-.21-.38-.45-.27-.61l2.16-4.83Z"/>
    <path class="cls-1" d="M69.91,78.02c.27,0,.44.24.34.48l-7.84,22.65c-.07.24-.34.48-.62.48h-7.53c-.27,0-.55-.24-.62-.48l-7.84-22.65c-.1-.24.07-.48.34-.48h7.63c.31,0,.58.24.65.48l3.59,14.07,3.59-14.07c.07-.24.34-.48.65-.48h7.63Z"/>
    <path class="cls-1" d="M83.52,78.02c5.99,0,9.58,3.25,9.58,8.15s-3.59,8.14-9.58,8.14h-1.4v6.84c0,.24-.24.48-.55.48h-6.13c-.24,0-.48-.24-.48-.48v-22.62c0-.27.24-.51.48-.51h8.08ZM83.82,88.19c1.2,0,2.02-.82,2.02-2.02s-.82-2.02-2.02-2.02h-1.78v4.04h1.78Z"/>
    <path class="cls-1" d="M114.4,78.02c5.99,0,9.58,3.25,9.58,8.15s-3.59,8.14-9.58,8.14h-1.4v6.84c0,.24-.24.48-.55.48h-6.13c-.24,0-.48-.24-.48-.48v-22.62c0-.27.24-.51.48-.51h8.08ZM114.71,88.19c1.2,0,2.02-.82,2.02-2.02s-.82-2.02-2.02-2.02h-1.78v4.04h1.78Z"/>
    <path class="cls-1" d="M145.25,95.48c.27,0,.51.21.51.45v5.23c0,.24-.24.48-.51.48h-15.91c-.24,0-.48-.27-.55-.51v-22.62c0-.31.17-.48.48-.48h15.57c.31,0,.55.24.55.48v5.17c0,.31-.24.52-.55.52h-8.93v2.7h7.25c.31,0,.48.24.45.44l-.48,4.79c-.03.21-.27.45-.58.45h-6.64v2.91h9.34Z"/>
    <path class="cls-1" d="M170.65,101.09c.17.31-.07.55-.38.55h-7.32c-.34,0-.65-.24-.79-.55l-3.56-7.46h-.41v7.53c0,.24-.24.48-.55.48h-6.02c-.27,0-.51-.24-.51-.48v-22.62c0-.27.24-.51.51-.51h9.03c5.27,0,8.76,3.08,8.76,7.74,0,2.7-1.64,5.44-4.21,6.54l5.44,8.79ZM160.21,87.81c1.16,0,1.95-.72,1.95-1.81s-.79-1.81-1.95-1.81h-2.02v3.62h2.02Z"/>
    <path class="cls-1" d="M191.82,78.02c5.99,0,9.58,3.25,9.58,8.15s-3.59,8.14-9.58,8.14h-1.4v6.84c0,.24-.24.48-.55.48h-6.13c-.24,0-.48-.24-.48-.48v-22.62c0-.27.24-.51.48-.51h8.08ZM192.12,88.19c1.2,0,2.02-.82,2.02-2.02s-.82-2.02-2.02-2.02h-1.78v4.04h1.78Z"/>
    <path class="cls-1" d="M222.66,95.48c.27,0,.51.21.51.45v5.23c0,.24-.24.48-.51.48h-15.91c-.24,0-.48-.27-.55-.51v-22.62c0-.31.17-.48.48-.48h15.57c.31,0,.55.24.55.48v5.17c0,.31-.24.52-.55.52h-8.93v2.7h7.25c.31,0,.48.24.45.44l-.48,4.79c-.03.21-.27.45-.58.45h-6.64v2.91h9.34Z"/>
    <path class="cls-1" d="M248.07,101.09c.17.31-.07.55-.38.55h-7.32c-.34,0-.65-.24-.79-.55l-3.56-7.46h-.41v7.53c0,.24-.24.48-.55.48h-6.02c-.27,0-.51-.24-.51-.48v-22.62c0-.27.24-.51.51-.51h9.03c5.27,0,8.76,3.08,8.76,7.74,0,2.7-1.64,5.44-4.21,6.54l5.44,8.79ZM237.63,87.81c1.16,0,1.95-.72,1.95-1.81s-.79-1.81-1.95-1.81h-2.02v3.62h2.02Z"/>
    <path class="cls-1" d="M254.68,94.45c.1-.35.34-.45.62-.27,1.57.89,3.46,1.54,4.76,1.64,1.1,0,1.81-.51,1.81-1.3,0-2.02-9.62-1.92-9.62-9.38,0-4.58,3.46-7.63,8.66-7.63,2.43,0,5.51.99,7.67,2.46.27.17.38.45.27.62l-2.16,4.83c-.1.34-.34.44-.62.27-1.68-.96-3.63-1.68-4.82-1.78-1.06,0-1.75.48-1.75,1.23,0,2.02,9.69,1.88,9.69,9.41,0,4.55-3.52,7.6-8.8,7.6-2.87,0-5.89-.89-7.6-2.26-.27-.21-.38-.45-.27-.61l2.16-4.83Z"/>
    <path class="cls-1" d="M286.35,102.11c-7.29,0-12.15-4.93-12.15-12.28s4.86-12.36,12.15-12.36,12.15,4.93,12.15,12.36-4.86,12.28-12.15,12.28ZM286.35,84.39c-2.81,0-4.69,2.19-4.69,5.44s1.88,5.44,4.69,5.44,4.69-2.19,4.69-5.44-1.88-5.44-4.69-5.44Z"/>
    <path class="cls-1" d="M323.74,78.02c.31,0,.51.24.51.51v22.62c0,.24-.21.48-.51.48h-5.92c-.24,0-.55-.17-.72-.45l-5.95-10.64v10.61c0,.24-.2.48-.51.48h-6.06c-.27,0-.48-.24-.48-.48v-22.62c0-.27.21-.51.48-.51h5.92c.31,0,.65.17.79.45l5.92,10.64v-10.58c0-.27.24-.51.48-.51h6.06Z"/>
  </g>
  <path class="cls-1" d="M21.94,15.47v-.13c-5.14-.61-9.27-6.23-9.95-13.41h-.22c-.68,7.18-4.81,12.8-9.95,13.41v.13c5.33.63,9.58,6.65,10.02,14.2h.09c.44-7.56,4.68-13.57,10.01-14.2Z"/>
</svg>