<?xml version="1.0" encoding="UTF-8"?>
<svg id="Lager_1" data-name="Lager 1" xmlns="http://www.w3.org/2000/svg" width="250mm" height="250mm" viewBox="0 0 708.66 708.66">
  <defs>
    <style>
      .cls-1 {
        fill: #2b4a45;
        stroke-width: 0px;
      }
    </style>
  </defs>
  <path class="cls-1" d="M683.8,666.7c-10.32-1.99-19.92-4.34-29.99-8.13-28.83-9.69-50.6-31.79-50.6-31.79-5.17-5.73-17.16-19.01-33.8-37.45-2.77-3.07-5.66-6.27-8.68-9.62-2.84-3.15-5.8-6.42-8.84-9.79-7.68-8.51-15.95-17.67-24.74-27.41-3.12-3.46-6.32-7-9.56-10.59-3.31-3.67-6.69-7.41-10.12-11.21-17.55-19.44-36.46-40.39-55.94-61.98-5.4.57-11.7,2.07-17.43,5.59-4.75,2.91-8.71,6.96-12.02,11.7,26.84,29.71,51.28,56.79,71.35,79,2.92,3.24,5.78,6.4,8.51,9.42,2.96,3.27,5.76,6.38,8.48,9.38,9.21,10.19,16.97,18.79,22.99,25.46,3.33,3.68,6.14,6.79,8.35,9.24,3.87,4.28,5.98,6.62,5.98,6.62.71.8,1.46,1.8,2.21,2.85,1.51,2.13,2.98,4.6,3.83,6.98,8.34,21.24-11.48,36.81-38.22,40.39-5.11,1.09-11.48.32-15.32,4.49-6.8,7.18-.62,17.87,8.25,17.87.17,0,.33,0,.5-.01,5.1.03,13.82.04,24.7.04,34.5,0,90.83-.11,122.98-.11,13.15,0,22.25.02,24.15.07h.13c5.18,0,10.66-4.29,11.22-9.37l.07-.89c.3-4.73-3.61-9.74-8.43-10.74Z"/>
  <path class="cls-1" d="M515.55,86.59c26.74,3.57,46.56,19.15,38.22,40.38-1.27,3.55-3.91,7.4-6.04,9.83,0,0-92.22,102.1-193.44,214.18-15.65-17.34-30.72-34.03-44.8-49.63-11.43,3.16-22.51,7.61-33.08,13.35,18.2,20.16,36.8,40.76,55.32,61.26-45.67,50.58-91.9,101.79-131.26,145.39,4.22,11.35,9.58,22.17,16.03,32.25,1.48-1.63,2.92-3.24,4.43-4.91,12.26-13.58,67.96-75.3,133.36-147.75,3.89,4.31,7.76,8.59,11.61,12.86,7.36-7.77,15.63-14.52,24.84-20.16.44-.27.92-.5,1.36-.77-5.11-5.66-10.2-11.31-15.26-16.91,97.54-108.07,207.46-229.85,226.38-250.81,0,0,21.77-22.1,50.6-31.79,10.08-3.79,19.68-6.15,29.99-8.13,4.82-1,8.73-6.01,8.43-10.74l-.07-.89c-.56-5.07-6.05-9.37-11.22-9.37h-.13c-1.91.05-11.11.07-24.37.07-32.26,0-88.64-.11-123.04-.11-10.75,0-19.35.01-24.41.04-.17,0-.33-.01-.5-.01-8.87,0-15.05,10.68-8.25,17.87,3.84,4.17,10.21,3.4,15.32,4.49Z"/>
  <path class="cls-1" d="M193.11,665.36c-26.74-3.57-46.56-19.15-38.21-40.39,1.03-2.89,2.96-5.92,4.79-8.27-7.07-9.12-13.52-18.73-19.29-28.77-15.41,17.08-27.64,30.65-35.53,39.42-3.47,3.38-23.79,22.41-50.02,31.23-10.08,3.79-19.68,6.14-29.99,8.13-4.82,1-8.73,6.01-8.43,10.74l.07.88c.56,5.07,6.05,9.37,11.22,9.37h.13c.29,0,4.28-.01,10.86-.01,24.81,0,86.56.04,126.31.04,17.49,0,30.72,0,34.66-.03.17,0,.33.01.5.01,8.87,0,15.05-10.68,8.25-17.86-3.84-4.17-10.21-3.4-15.32-4.49Z"/>
  <path class="cls-1" d="M24.86,85.22c10.32,1.99,19.92,4.34,29.99,8.13,26.22,8.82,46.55,27.85,50.02,31.23,18.83,20.92,62.26,69.07,114.91,127.39,7.94-5.18,16.11-9.92,24.52-14.12l5.69-2.42c-10.65-11.8-18.98-21.03-24.41-27.05-1.87-2.08-3.52-3.9-4.66-5.16-23.37-25.87-42.91-47.53-60.09-66.58-2.11-2.43-4.68-6.2-5.93-9.69-8.34-21.24,11.48-36.81,38.21-40.39,5.11-1.09,11.48-.32,15.32-4.49,6.8-7.18.62-17.87-8.25-17.87-.17,0-.33,0-.5.01-3.91-.02-16.99-.03-34.29-.03-39.55,0-101.24.04-126.35.04-6.78,0-10.89,0-11.18-.01h-.13c-5.18,0-10.66,4.29-11.22,9.37l-.07.89c-.3,4.73,3.61,9.74,8.43,10.74Z"/>
  <path class="cls-1" d="M498.52,407.59c-11.56-4.4-25.96-7.42-41.27-7.42-7.55,0-15.32.79-23.09,2.46-4.42.95-8.83,2.2-13.21,3.79-4.02,1.46-7.99,3.18-11.9,5.24-1.81.96-3.62,1.94-5.4,3.03-7.85,4.81-14.88,10.67-21.11,17.54-2.77,3.05-5.36,6.32-7.81,9.77-2.43,3.43-4.69,7.07-6.8,10.89-9.93,17.95-16.38,40.19-19.2,66.64-.98,9.21,5.68,17.46,14.89,18.45.6.06,1.21.1,1.8.1,8.47,0,15.73-6.38,16.64-14.99,1.79-16.75,5.19-31.19,10.14-43.32,1.75-4.28,3.69-8.28,5.82-11.98,2.19-3.79,4.6-7.26,7.21-10.43,4.67-5.7,9.98-10.43,15.96-14.09,3.7-2.27,7.56-4.03,11.49-5.43,4.48-1.6,9.06-2.68,13.63-3.32,3.7-.52,7.39-.79,11-.79,1.74,0,3.43.14,5.13.25,9.05.55,17.47,2.42,24.15,4.96,19.6,7.46,34.38,22.34,41.62,41.92,3.64,9.84,5.15,20.47,4.82,31.33l28.83,31.94c7.03-25.39,6.44-51.54-2.21-74.9-10.64-28.78-32.36-50.67-61.14-61.62Z"/>
  <path class="cls-1" d="M494.56,593.12c-35.57,37.35-88.35,59.62-143.47,59.62-9.6,0-19.25-.67-28.91-2.05l-.98-.14c-42.36-6.98-79.07-28.31-106.26-58.38-2.78-3.08-5.48-6.23-8.06-9.48-2.61-3.29-5.1-6.68-7.49-10.14-6.68-9.67-12.49-19.97-17.34-30.79-1.87-4.17-3.57-8.42-5.14-12.73-1.63-4.45-3.1-8.96-4.41-13.54-7.4-26.02-9.52-54.07-5.2-82.6,7.48-49.46,32.82-92.89,71.49-122.99,1.48-1.15,2.94-2.33,4.47-3.44,1.84-1.34,3.76-2.52,5.63-3.8,3.47-2.35,6.99-4.6,10.58-6.7,10.21-5.97,20.84-10.91,31.82-14.75,4.29-1.51,8.63-2.83,13.02-4.01,4.56-1.22,9.17-2.26,13.81-3.12,10.76-1.99,21.69-3.12,32.72-3.12,9.46,0,18.97.74,28.47,2.24.87.14,1.75.2,2.6.2,8.12,0,15.26-5.88,16.57-14.14,1.44-9.15-4.8-17.73-13.94-19.17-7.78-1.23-25.35-2.71-25.35-2.71-46.61-2.94-86.19-40.8-90.1-86.18-4.54-52.61,29.51-95.7,79.21-100.21,4.14-.38,8.28-.57,12.36-.57,17.11,0,33.27,3.26,44.84,9.2,26.59,13.66,39.72,37.12,33.44,59.76-7.01,25.26-24.03,38.08-50.65,38.08-2.69,0-5.47-.13-8.35-.39-.45-.03-.91-.05-1.35-.05-8.68,0-16.05,6.5-16.83,15.26-.82,9.22,5.98,17.36,15.2,18.19,3.86.35,7.64.53,11.33.53,41.84,0,71.8-22.43,82.95-62.65,10.55-38.03-9.71-77.63-50.43-98.54-20.59-10.57-44-12.86-60.39-12.86-6.26,0-11.5.33-15.16.67-68.64,6.24-115.75,64.92-109.57,136.48,1.23,14.26,4.9,27.85,10.59,40.41,9.42,20.8,24.37,38.73,42.93,52.01-3.26.99-6.5,2.07-9.72,3.21-4.14,1.47-8.23,3.09-12.29,4.81-10.55,4.48-20.8,9.83-30.67,16.03-3.51,2.2-6.96,4.52-10.37,6.93-.91.64-1.83,1.25-2.72,1.91-2.45,1.79-4.82,3.66-7.18,5.54-44.4,35.33-73.45,85.72-82.11,142.93-6.15,40.63-1.13,80.41,12.61,116.15,1.64,4.26,3.37,8.47,5.25,12.61,1.84,4.04,3.8,8.02,5.86,11.93,5.43,10.3,11.66,20.12,18.57,29.42,2.49,3.35,5.08,6.64,7.75,9.84,2.65,3.18,5.38,6.3,8.21,9.33,32.18,34.53,75.25,58.9,124.79,66.72l15.33,1.67c6.1.48,12.19.71,18.27.71,63.39,0,124.35-25.42,166.26-68.22-5.75-6.36-13.36-14.79-22.49-24.9Z"/>
</svg>